<svg id="Capa_1" data-name="Capa 1" xmlns="http://www.w3.org/2000/svg" viewBox="0 0 31.28 30.48"><defs><style>.cls-1{fill:#009fe3;}</style></defs><path class="cls-1" d="M28.9,13.54a4.81,4.81,0,0,1,.44.84c.3,1,.62,1.93.82,2.91.62,3.15-1.22,6.41-3.25,8.67a16.82,16.82,0,0,1-1.34,1.33,14.45,14.45,0,0,1-5.8,3.09,15.8,15.8,0,0,1-9.52-.47,15,15,0,0,1-7.32-6,19.08,19.08,0,0,1-1.18-2.12,13.42,13.42,0,0,1-.95-3,14,14,0,0,1-.21-4.87c0-.16.05-.33.08-.49A16.1,16.1,0,0,1,2.21,8.64,16.39,16.39,0,0,1,5.07,4.83,15.46,15.46,0,0,1,13.91.54a15.7,15.7,0,0,1,5.63.34A15.45,15.45,0,0,1,25,3.36c.08.05.15.12.33.26l-1,.58c-.39.22-.8.43-1.18.68a.89.89,0,0,1-.95.14,14.79,14.79,0,0,0-5.74-1.19A12,12,0,0,0,8.17,7a12.75,12.75,0,0,0-2.69,3.62,11.73,11.73,0,0,0-1,7.48,8.86,8.86,0,0,0,.63,2.28,11.37,11.37,0,0,0,9.7,6.89,12.7,12.7,0,0,0,9-2.7,14,14,0,0,0,4.65-7.94,22.41,22.41,0,0,0,.3-2.84c0-.06,0-.13,0-.19Zm-3.75-10c-1-.54-1.92-1.1-2.89-1.56A14.39,14.39,0,0,0,17.05.63a15.12,15.12,0,0,0-6.89,1.09A15.53,15.53,0,0,0,3.59,6.78,15.84,15.84,0,0,0,2.05,9.39,14.21,14.21,0,0,0,.74,14.68a13.71,13.71,0,0,0,1.66,7.9A27.54,27.54,0,0,0,4,25.06a13.45,13.45,0,0,0,4.85,4.08,14,14,0,0,0,5.22,1.49,15.61,15.61,0,0,0,7-.84,14.94,14.94,0,0,0,6.87-5.27,12.39,12.39,0,0,0,1.32-2.29A8.51,8.51,0,0,0,29.73,16c-.22-.7-.5-1.38-.8-2.18-.11.19-.13.21-.13.24a12.08,12.08,0,0,1-1.49,6.16c-.52.89-1.08,1.75-1.67,2.59a10.68,10.68,0,0,1-3.14,2.85,12.72,12.72,0,0,1-8.83,1.68,10.63,10.63,0,0,1-5.41-2.45A10.92,10.92,0,0,1,5.16,21,12.38,12.38,0,0,1,4.28,18a11.2,11.2,0,0,1,1.29-7.91c.46-.76,1-1.48,1.53-2.2a10.91,10.91,0,0,1,3.18-2.72,10.75,10.75,0,0,1,5-1.51,14.62,14.62,0,0,1,7.11,1.19.72.72,0,0,0,.54,0C23.61,4.47,24.32,4,25.15,3.53Z" transform="translate(-0.46 -0.42)"/><path class="cls-1" d="M30.21,10.92h0Z" transform="translate(-0.46 -0.42)"/><path class="cls-1" d="M30.37,2.65,23,5.64,25.47,7c-.21.71-.38,1.38-.6,2s-.49,1.31-.75,2a11.71,11.71,0,0,1-1.78,3.46c-.86,1-1.7,2-2.56,3a2.53,2.53,0,0,1-.45.34V8.22h3.25v5.41a1.29,1.29,0,0,0,.32-.74c0-1.45,0-2.91,0-4.36,0-.16,0-.33,0-.53-1.09,0-2.13,0-3.17,0-.4,0-.54.1-.54.54,0,2.94,0,5.88,0,8.82a1.77,1.77,0,0,1-1.44,1.48V11.09H14.17v9.58l-.6.16v-7h-4v7.4c-.74-.16-1.43-.27-2.1-.45s-1.31-.45-2-.67l.1.06a2.16,2.16,0,0,0,.29.66,3,3,0,0,0,.33.4,8.36,8.36,0,0,0,4.41,2.19,12.66,12.66,0,0,0,5.61-.16,14.86,14.86,0,0,0,4.55-2.07A20.36,20.36,0,0,0,24,18.46,21.39,21.39,0,0,0,27.31,14,18.56,18.56,0,0,0,29,9.94c.09-.33.23-.64.35-1l.22.39h0L31.74,11C31.28,8.17,30.84,5.48,30.37,2.65Zm-16,8.55h3.23v.48c0,2.32,0,4.64,0,7a.64.64,0,0,1-.39.67c-.94.44-1.87.91-2.85,1.39ZM9.79,14h3.58v6.83a7.89,7.89,0,0,1-3.58.35Z" transform="translate(-0.46 -0.42)"/><path class="cls-1" d="M29.48,9.38v0a1.33,1.33,0,0,1-.18.49c-.5,1-.84,2-1.27,3a20.32,20.32,0,0,1-5.72,7.43l-.63.5a14.3,14.3,0,0,1-9.06,3A10.76,10.76,0,0,1,7,22.17a2.65,2.65,0,0,1-1.39-2A4.61,4.61,0,0,0,8,22.56a11.73,11.73,0,0,0,7.2,1,16.12,16.12,0,0,0,8.28-4.46,21,21,0,0,0,3.69-4.84A21.09,21.09,0,0,0,29.25,9,.43.43,0,0,1,29.48,9.38Z" transform="translate(-0.46 -0.42)"/><path class="cls-1" d="M29.53,9.38,8,2.54" transform="translate(-0.46 -0.42)"/><path class="cls-1" d="M30.19,10.93h0Z" transform="translate(-0.46 -0.42)"/><path class="cls-1" d="M25.15,3.53c-.83.5-1.54.94-2.27,1.35a.72.72,0,0,1-.54,0A14.62,14.62,0,0,0,15.23,3.7a10.75,10.75,0,0,0-5,1.51A10.91,10.91,0,0,0,7.1,7.93c-.53.72-1.07,1.44-1.53,2.2A11.2,11.2,0,0,0,4.28,18,12.38,12.38,0,0,0,5.16,21a10.92,10.92,0,0,0,3.1,3.92,10.63,10.63,0,0,0,5.41,2.45,12.72,12.72,0,0,0,8.83-1.68,10.68,10.68,0,0,0,3.14-2.85c.59-.84,1.15-1.7,1.67-2.59a12.08,12.08,0,0,0,1.49-6.16s0-.05.13-.24c.3.8.58,1.48.8,2.18a8.51,8.51,0,0,1-.52,6.23,12.39,12.39,0,0,1-1.32,2.29A14.94,14.94,0,0,1,21,29.79a15.61,15.61,0,0,1-7,.84,14,14,0,0,1-5.22-1.49A13.45,13.45,0,0,1,4,25.06,27.54,27.54,0,0,1,2.4,22.58a13.71,13.71,0,0,1-1.66-7.9A14.21,14.21,0,0,1,2.05,9.39,15.84,15.84,0,0,1,3.59,6.78a15.53,15.53,0,0,1,6.57-5.06A15.12,15.12,0,0,1,17.05.63,14.39,14.39,0,0,1,22.26,2C23.23,2.43,24.15,3,25.15,3.53Z" transform="translate(-0.46 -0.42)"/><path class="cls-1" d="M17.62,18.64a.64.64,0,0,1-.39.67c-.94.44-1.87.91-2.85,1.39V11.2h3.23v.48C17.61,14,17.6,16.32,17.62,18.64Z" transform="translate(-0.46 -0.42)"/><path class="cls-1" d="M13.37,14v6.83a7.89,7.89,0,0,1-3.58.35V14Z" transform="translate(-0.46 -0.42)"/><path class="cls-1" d="M1,.42" transform="translate(-0.46 -0.42)"/></svg>